<svg width="1080" height="1080" viewBox="0 0 1080 1080" fill="none" xmlns="http://www.w3.org/2000/svg">
<path fill-rule="evenodd" clip-rule="evenodd" d="M795.629 737.856C818.907 735.154 869.82 729.246 878.897 740.633C888.074 752.131 868.717 799.413 860.064 820.55L860.049 820.588C857.417 826.997 863.056 829.571 868.963 824.738C907.465 793.271 917.346 727.343 909.506 717.834C901.666 708.378 834.434 700.236 793.461 728.446C787.125 732.753 788.199 738.742 795.233 737.902L795.629 737.856ZM560.179 866.659C653.333 866.659 761.529 837.29 836.175 782.244C848.532 773.07 837.964 759.42 825.327 764.79C741.679 800.313 650.705 817.431 568.007 817.431C445.386 817.431 326.679 783.81 230.673 727.925C222.286 723.002 216.024 731.617 223.013 737.939C311.973 818.326 429.562 866.659 560.179 866.659Z" fill="url(#paint0_linear_513_51)"/>
<path d="M655.732 272.217C659.166 270.157 662.736 267.959 666.444 266.037C676.057 261.093 686.769 258.621 697.619 259.17C705.446 259.582 712.588 261.779 718.081 267.547C723.3 272.903 725.222 279.495 725.772 286.636C725.909 288.147 725.909 289.658 725.909 291.306V362.444C725.909 368.624 725.085 369.448 718.905 369.448H702.151C701.052 369.448 699.953 369.448 698.855 369.31C697.207 369.173 695.833 367.8 695.559 366.152C695.284 364.641 695.284 363.13 695.284 361.62V298.035C695.421 295.426 695.147 292.954 694.46 290.482C693.361 286.224 689.516 283.203 685.121 282.929C677.019 282.379 668.916 284.027 661.5 287.46C660.402 287.735 659.715 288.834 659.852 289.932V362.169C659.852 363.542 659.852 364.778 659.578 366.152C659.578 368.074 658.067 369.448 656.144 369.448C654.084 369.585 652.024 369.585 649.827 369.585H635.27C630.188 369.585 629.09 368.349 629.09 363.268V298.31C629.09 295.975 628.953 293.503 628.403 291.168C627.442 286.499 623.459 283.203 618.79 282.929C610.55 282.379 602.173 284.027 594.757 287.598C593.658 287.872 592.971 289.108 593.246 290.207V363.405C593.246 368.486 592.147 369.585 587.066 369.585H568.664C563.857 369.585 562.621 368.212 562.621 363.542V268.234C562.621 267.135 562.758 266.037 563.033 264.938C563.582 263.29 565.23 262.329 566.878 262.329H584.045C586.517 262.329 588.028 263.839 588.852 266.174C589.538 268.097 589.95 269.882 590.637 271.942C592.01 271.942 592.834 270.981 593.795 270.431C601.349 265.762 609.314 261.779 618.241 260.131C625.107 258.758 631.974 258.758 638.84 260.131C645.295 261.505 651.063 265.35 654.771 270.843C655.046 271.255 655.32 271.53 655.595 271.805C655.458 271.942 655.595 271.942 655.732 272.217Z" fill="#00A8E1"/>
<path d="M452.754 277.435C453.716 277.16 454.54 276.611 455.089 275.787C457.561 273.315 460.17 270.98 462.917 268.783C470.058 263.29 478.985 260.543 487.911 261.23C491.482 261.367 492.718 262.466 492.993 265.899C493.267 270.568 493.13 275.375 493.13 280.044C493.267 281.967 493.13 283.752 492.855 285.675C492.306 288.147 491.345 289.108 488.873 289.383C486.95 289.52 485.165 289.383 483.242 289.246C474.041 288.422 465.114 290.207 456.462 293.091C454.54 293.778 454.54 295.151 454.54 296.662V362.581C454.54 363.817 454.54 364.916 454.402 366.152C454.265 367.937 452.892 369.31 451.106 369.31C450.145 369.448 449.046 369.448 448.085 369.448H430.232C429.271 369.448 428.172 369.448 427.211 369.31C425.425 369.173 424.052 367.662 423.915 365.877C423.777 364.778 423.777 363.68 423.777 362.581V269.195C423.777 262.878 424.464 262.191 430.781 262.191H443.965C447.536 262.191 449.184 263.427 450.145 266.861C451.106 270.294 451.93 273.727 452.754 277.435Z" fill="#00A8E1"/>
<path d="M506.315 315.613V266.86C506.452 263.564 507.688 262.328 510.984 262.191C518.126 262.054 525.267 262.054 532.408 262.191C535.567 262.191 536.528 263.152 536.803 266.311C536.94 267.547 536.94 268.646 536.94 269.882V361.345C536.94 362.856 536.803 364.366 536.665 365.877C536.528 367.662 535.155 368.898 533.37 369.036C532.546 369.173 531.859 369.173 531.035 369.173H511.946C511.259 369.173 510.71 369.173 510.023 369.036C508.1 368.898 506.452 367.388 506.315 365.465C506.178 364.366 506.178 363.268 506.178 362.169C506.315 346.925 506.315 331.269 506.315 315.613Z" fill="#00A8E1"/>
<path d="M522.245 213.026C524.442 212.889 526.639 213.301 528.699 213.988C536.115 216.46 539.961 222.914 539.274 231.291C538.725 238.433 533.369 244.201 526.227 245.299C523.206 245.849 520.047 245.849 517.026 245.299C509.198 243.789 503.43 238.021 503.98 228.133C504.804 218.382 511.258 213.026 522.245 213.026Z" fill="#00A8E1"/>
<path d="M403.453 304.352C402.904 297.211 400.981 290.207 398.097 283.752C392.466 271.942 383.814 263.29 370.631 260.269C355.524 256.973 341.928 260.269 329.568 269.47C328.744 270.294 327.783 270.981 326.684 271.53C326.41 271.393 326.135 271.255 326.135 271.118C325.723 269.745 325.448 268.371 325.036 266.998C323.938 263.565 322.564 262.329 318.856 262.329C314.736 262.329 310.479 262.466 306.359 262.329C303.2 262.191 300.316 262.603 298.119 265.075C298.119 313.142 298.119 361.345 298.256 409.274C300.042 412.158 302.788 412.707 305.947 412.57C310.891 412.433 315.835 412.57 320.779 412.57C329.431 412.57 329.431 412.57 329.431 404.055V364.916C329.431 363.954 329.019 362.856 329.98 362.032C336.847 367.388 345.224 370.684 353.876 371.508C365.961 372.744 376.948 369.722 386.149 361.482C392.878 355.302 397.822 347.337 400.432 338.548C404.14 327.287 404.414 315.888 403.453 304.352ZM370.631 332.78C369.669 337.037 367.472 340.883 364.313 343.767C360.743 346.788 356.348 348.573 351.679 348.573C344.675 348.985 337.808 347.475 331.628 344.179C330.118 343.492 329.156 341.981 329.294 340.333V315.476C329.294 307.236 329.431 298.996 329.294 290.756C329.156 288.834 330.255 287.186 332.04 286.499C339.593 282.928 347.421 281.28 355.661 282.928C361.429 283.752 366.373 287.46 368.708 292.816C370.768 297.211 372.004 302.018 372.278 306.824C373.102 315.614 373.102 324.403 370.631 332.78Z" fill="#00A8E1"/>
<path d="M776.035 324.54C786.334 326.463 796.909 326.6 807.209 324.952C813.252 324.128 819.02 322.343 824.376 319.459C830.555 315.888 835.087 310.944 837.01 304.078C841.817 286.774 834.401 269.333 816.41 262.878C807.621 259.994 798.282 259.033 789.081 260.269C767.383 262.741 753.237 274.689 746.783 295.426C742.251 309.571 742.8 323.991 746.508 338.273C751.315 356.539 763.4 367.388 781.665 371.233C792.102 373.568 802.677 373.156 813.114 371.508C818.608 370.546 824.101 369.173 829.319 367.113C832.478 365.877 834.126 363.954 833.989 360.384C833.851 357.088 833.989 353.655 833.989 350.221C833.989 346.101 832.341 344.865 828.358 345.827C824.375 346.788 820.53 347.612 816.548 348.436C808.033 350.221 799.244 350.221 790.729 348.711C779.056 346.376 771.503 336.351 772.189 323.991C773.425 324.128 774.799 324.265 776.035 324.54ZM772.601 303.528C773.013 300.232 773.975 297.074 775.211 294.052C779.331 284.027 787.982 280.594 796.772 281.143C799.244 281.28 801.716 281.83 804.05 282.791C807.621 284.302 809.956 287.598 810.368 291.443C810.78 293.778 810.642 296.25 809.956 298.584C808.308 303.528 804.325 305.588 799.518 306.55C796.634 307.236 793.613 307.511 790.592 307.236C785.236 307.236 779.743 306.824 774.387 306C772.327 305.726 772.327 305.726 772.601 303.528Z" fill="#00A8E1"/>
<path d="M348.063 615.316C348.887 612.569 349.711 609.96 350.535 607.213C356.852 585.927 363.169 564.778 369.487 543.491L370.311 541.019C370.997 538.547 373.332 537.037 375.804 537.037H396.678C401.897 537.037 402.996 538.547 401.21 543.491L392.97 565.327C383.769 589.223 374.568 613.256 365.367 637.152C365.092 637.976 364.68 638.8 364.405 639.624C363.444 642.508 360.56 644.43 357.539 644.156C351.496 644.018 345.454 644.018 339.411 644.156C335.154 644.293 332.682 642.37 331.171 638.525C327.738 629.461 324.167 620.26 320.734 611.196C312.494 589.635 304.117 568.074 295.877 546.375C295.053 544.727 294.503 542.805 294.091 541.019C293.679 538.273 294.641 536.899 297.387 536.899C305.215 536.762 313.043 536.899 320.734 536.899C324.03 536.899 325.54 539.097 326.364 541.981C327.875 547.199 329.386 552.555 331.034 557.774C336.664 576.863 342.158 596.09 347.788 615.179C347.651 615.316 347.788 615.316 348.063 615.316Z" fill="white"/>
<path d="M445.294 590.596V640.035C445.019 642.782 443.783 644.018 441.036 644.155C433.62 644.293 426.342 644.293 418.926 644.155C416.179 644.155 414.943 642.782 414.669 640.173C414.531 639.349 414.531 638.387 414.531 637.563V542.53C414.669 538.272 415.767 537.036 420.025 537.036H439.8C444.058 537.036 445.294 538.272 445.294 542.53V590.596Z" fill="white"/>
<path d="M430.05 487.734C432.796 487.46 435.543 488.009 438.152 489.108C443.508 491.168 447.216 496.112 447.491 501.88C448.59 514.377 440.212 520.694 429.088 520.419C427.578 520.419 426.067 520.145 424.556 519.87C416.042 517.81 411.647 511.218 412.471 501.742C413.158 494.189 419.063 488.558 427.166 487.872C428.127 487.734 429.088 487.597 430.05 487.734Z" fill="white"/>
<path d="M804.693 582.081V582.631C804.144 582.081 803.869 581.257 804.144 580.571V579.472C804.144 579.472 804.144 579.335 804.281 579.335H804.144V577.961H804.419C804.419 577.824 804.281 577.824 804.281 577.687C804.007 575.077 803.457 572.468 802.771 569.996C797.689 551.868 786.291 539.92 767.751 535.251C759.099 533.191 750.31 532.916 741.521 534.29C722.981 537.036 709.66 546.924 703.205 564.503C696.888 581.257 697.025 599.66 703.342 616.414C708.836 631.658 719.822 641.272 735.615 645.254C743.993 647.314 752.782 647.863 761.434 646.627C790.274 643.194 802.221 621.358 804.144 602.407H804.007V600.484C803.869 599.66 803.732 598.973 804.556 598.424V598.699C804.556 598.561 804.693 598.287 804.831 598.149V582.356C804.831 582.219 804.693 582.219 804.693 582.081ZM771.734 608.174C770.91 611.058 769.674 613.668 767.888 616.14C764.867 620.397 760.061 623.144 754.842 623.556C752.233 623.83 749.623 623.83 747.014 623.281C741.246 622.182 736.439 618.337 734.105 612.981C732.045 608.724 730.809 604.055 730.397 599.385C729.71 591.283 729.573 583.18 731.495 575.215C732.182 572.056 733.555 568.897 735.203 566.151C738.225 561.207 743.443 558.048 749.211 557.636C751.821 557.362 754.43 557.362 757.039 557.911C762.532 559.01 767.064 562.58 769.536 567.662C771.871 572.468 773.244 577.824 773.519 583.18C773.656 585.652 773.794 588.124 773.656 590.596C774.068 596.639 773.382 602.544 771.734 608.174Z" fill="white"/>
<path d="M563.947 488.696H544.857C539.639 488.696 538.678 489.657 538.678 494.876V539.371C538.678 540.332 539.09 541.294 538.403 542.255C537.167 542.118 536.48 541.294 535.519 540.744C521.236 532.367 506.267 530.857 491.161 537.86C480.586 542.804 473.994 551.731 469.737 562.306C465.617 572.468 464.655 583.18 464.93 594.029C464.93 604.192 467.265 614.217 471.797 623.281C477.015 633.306 484.569 640.997 495.555 644.293C510.524 648.962 524.532 646.627 537.304 637.152C538.266 636.602 538.815 635.641 540.051 635.366C540.738 636.877 541.287 638.525 541.561 640.173C542.111 642.37 544.033 643.881 546.368 643.881H549.664C554.608 643.881 559.415 644.018 564.221 643.881C568.067 643.881 569.165 642.645 569.303 638.662V493.914C569.165 489.657 568.067 488.696 563.947 488.696ZM538.815 589.772V614.766C539.089 616.414 538.128 617.925 536.618 618.612C530.026 622.32 522.472 623.83 515.056 622.732C508.739 622.045 503.246 618.2 500.362 612.569C498.165 608.174 496.929 603.505 496.517 598.699C495.418 590.047 496.105 581.257 498.165 572.88C498.851 570.545 499.675 568.348 500.911 566.151C503.795 560.795 509.288 557.362 515.331 556.95C522.61 556.263 529.888 557.636 536.48 560.658C538.128 561.207 539.09 562.855 538.952 564.64C538.678 573.155 538.815 581.395 538.815 589.772Z" fill="white"/>
<path d="M646.896 600.621C654.861 600.072 662.827 598.561 669.968 594.716C677.247 591.145 682.328 584.416 683.839 576.451C684.8 571.507 684.8 566.288 683.701 561.344C680.817 548.984 672.989 541.294 661.179 537.311C654.587 535.251 647.583 534.427 640.716 534.702C617.644 535.251 600.066 546.924 592.925 569.996C588.118 585.24 588.805 600.759 593.474 616.002C598.281 631.658 609.267 641.134 624.923 645.392C631.652 647.04 638.656 647.726 645.523 647.452C655.548 647.314 665.573 645.392 675.049 641.821C679.032 640.31 679.993 638.937 679.993 634.68V624.792C679.856 620.809 678.208 619.436 674.225 620.397C671.204 621.221 668.32 621.908 665.299 622.594C656.098 624.792 646.484 625.204 637.146 623.556C627.807 621.77 621.49 616.414 619.018 607.076C618.331 604.329 617.782 601.583 617.507 598.699C618.194 598.699 618.88 598.699 619.43 598.973C628.494 600.621 637.695 601.308 646.896 600.621ZM618.194 578.648C619.155 573.292 620.391 568.074 623.687 563.679C628.768 556.95 635.772 555.027 643.738 555.851C644.424 555.851 644.974 556.126 645.66 556.126C655.274 557.636 657.608 565.327 655.823 572.743C654.449 578.236 649.918 580.296 644.836 581.257C642.09 581.807 639.206 582.081 636.322 581.944C630.691 581.807 625.198 581.395 619.704 580.571C618.468 580.433 617.919 579.884 618.194 578.648Z" fill="white"/>
<defs>
<linearGradient id="paint0_linear_513_51" x1="367.612" y1="792.199" x2="930.071" y2="767.278" gradientUnits="userSpaceOnUse">
<stop stop-color="#2580BA"/>
<stop offset="1" stop-color="#00B9E7"/>
</linearGradient>
</defs>
</svg>
